<?xml version="1.0" encoding="utf-8"?>
<!-- Generator: Adobe Illustrator 20.1.0, SVG Export Plug-In . SVG Version: 6.00 Build 0)  -->
<!DOCTYPE svg PUBLIC "-//W3C//DTD SVG 1.1//EN" "http://www.w3.org/Graphics/SVG/1.1/DTD/svg11.dtd">
<svg version="1.1" id="Ebene_1" xmlns="http://www.w3.org/2000/svg" xmlns:xlink="http://www.w3.org/1999/xlink" x="0px" y="0px"
	 viewBox="0 0 124.1 80.5" enable-background="new 0 0 124.1 80.5" xml:space="preserve">
<g>
	<path fill="#A2DAF8" d="M87.3,80.3c-20.6,0-30.4-12.3-32.5-17.1c-1.8-4.4-2.8-10-3-17l0,0v-2c0-0.1,0-0.3,0-0.4v-7
		c0-3.8-0.3-7-0.9-9.5c-0.6-2.6-1.6-4.6-2.9-6.1c-1.3-1.5-2.9-2.6-4.9-3.2c-1.9-0.6-4.2-0.9-6.8-0.9c-2.6,0-4.9,0.3-6.8,0.9
		c-1.9,0.6-3.6,1.7-4.9,3.2c-1.3,1.5-2.3,3.5-2.9,6.1c-0.6,2.6-0.9,5.8-0.9,9.8v39.8c-0.1,0-0.2,0-0.3,0c-3.4,0-6.5-8.3-9.8-8.3
		c-3.4,0-7-22.9-10.5-23.5v-8.6c0-8,1-14.5,3.1-19.3c2-4.8,10.4-8.5,13.9-11c3.4-2.5,6.9-6.1,19.9-6.1c20.6,0,30.4,12.3,32.5,17.1
		c1.8,4.4,2.8,10,3,17l0,0v2c0,0.1,0,0.3,0,0.4v7c0,3.8,0.3,7,0.9,9.5c0.6,2.6,1.6,4.6,2.9,6.1c1.3,1.5,2.9,2.6,4.9,3.2
		c1.9,0.6,4.2,0.9,6.8,0.9c2.6,0,4.9-0.3,6.8-0.9c1.9-0.6,3.6-1.7,4.9-3.2c1.3-1.5,2.3-3.5,2.9-6.1c0.6-2.6,0.9-5.8,0.9-9.8V3.5
		c0.1,0,0.2,0,0.3,0c3.4,0,6.5,8.3,9.8,8.3c3.4,0,7,22.9,10.5,23.5v8.6c0,8-1,14.5-3.1,19.3c-2,4.8-10.4,8.5-13.9,11
		C103.7,76.8,100.3,80.3,87.3,80.3"/>
	<path fill="#009FE3" d="M124.1,76.8V36.4c0-8-1-14.5-3.1-19.3c-2-4.8-4.8-8.5-8.2-11c-3.4-2.5-7.4-4.2-12-4.9
		c-4.1-0.7-8.5-1-12.9-1.1C83.5,0.1,79.1,0.4,75,1.1c-4.6,0.8-8.6,2.4-12,4.9c-3.4,2.5-6.2,6.2-8.2,11c-2,4.8-3.1,11.3-3.1,19.3v7.4
		c0,3.8-0.3,7-0.9,9.5c-0.6,2.6-1.6,4.6-2.9,6.1C46.6,60.9,45,62,43,62.6c-1.9,0.6-4.2,0.9-6.8,0.9c-2.6,0-4.9-0.3-6.8-0.9
		c-1.9-0.6-3.6-1.7-4.9-3.2c-1.3-1.5-2.3-3.5-2.9-6.1c-0.6-2.6-0.9-5.8-0.9-9.8V3.7c-3.5-0.6-6.9-0.9-10.3-0.9
		C6.9,2.8,3.5,3.1,0,3.7v40.4c0,8,1,14.5,3.1,19.3c2,4.8,4.8,8.5,8.2,11c3.4,2.5,7.4,4.2,12,4.9c4.1,0.7,8.5,1,12.9,1.1
		c4.5-0.1,8.8-0.4,12.9-1.1c4.6-0.8,8.6-2.4,12-4.9c3.4-2.5,6.2-6.2,8.2-11c1.9-4.4,2.9-10.3,3-17.4l0,0v-1.5c0-0.1,0-0.3,0-0.4l0,0
		V37c0-4,0.3-7.2,0.9-9.8c0.6-2.6,1.6-4.6,2.9-6.1c1.3-1.5,2.9-2.6,4.9-3.2c1.9-0.6,4.2-0.9,6.8-0.9c2.6,0,4.9,0.3,6.8,0.9
		c1.9,0.6,3.6,1.7,4.9,3.2c1.3,1.5,2.3,3.5,2.9,6.1c0.6,2.6,0.9,5.8,0.9,9.8v39.8c3.5,0.6,6.9,0.9,10.3,0.9
		C117.2,77.7,120.6,77.4,124.1,76.8L124.1,76.8z"/>
</g>
</svg>
